name rise30.6535peak61.5555fall82.9339.mot
datacolumns 19
datarows 54
range 18.749927 18.838261
endheader
time	ground_force1_vx	ground_force1_vy	ground_force1_vz	ground_force1_px	ground_force1_py	ground_force1_pz	ground_force2_vx	ground_force2_vy	ground_force2_vz	ground_force2_px	ground_force2_py	ground_force2_pz	ground_torque1_x	ground_torque1_y	ground_torque1_z	ground_torque2_x	ground_torque2_y	ground_torque2_z	
18.749927	-51.844065	797.425454	53.605057	0.135792	0.000000	0.133570	-8.968397	26.117892	9.014385	0.387677	0.000000	-0.043329	0.000000	26.422868	0.000000	0.000000	6.502898	0.000000	
18.751599	-52.187620	795.387197	53.548476	0.135227	0.000000	0.133566	-10.454983	31.684478	10.681350	0.390669	0.000000	-0.043925	0.000000	26.386712	0.000000	0.000000	7.753330	0.000000	
18.753256	-52.549454	793.276468	53.482254	0.134669	0.000000	0.133559	-11.838639	37.358585	12.298675	0.393542	0.000000	-0.044512	0.000000	26.353553	0.000000	0.000000	8.981599	0.000000	
18.754921	-52.930139	791.092048	53.406064	0.134118	0.000000	0.133548	-13.068816	43.018482	13.817617	0.396291	0.000000	-0.045094	0.000000	26.323460	0.000000	0.000000	10.151621	0.000000	
18.756592	-53.330184	788.832620	53.319562	0.133572	0.000000	0.133532	-14.104438	48.558738	15.197155	0.398911	0.000000	-0.045671	0.000000	26.296480	0.000000	0.000000	11.232335	0.000000	
18.758262	-53.750034	786.496769	53.222390	0.133030	0.000000	0.133513	-14.916128	53.896862	16.406284	0.401399	0.000000	-0.046245	0.000000	26.272640	0.000000	0.000000	12.199542	0.000000	
18.759925	-54.190061	784.082984	53.114176	0.132492	0.000000	0.133490	-15.487174	58.977147	17.425180	0.403754	0.000000	-0.046818	0.000000	26.251945	0.000000	0.000000	13.036925	0.000000	
18.761601	-54.650562	781.589658	52.994534	0.131957	0.000000	0.133462	-15.813315	63.771706	18.245269	0.405976	0.000000	-0.047390	0.000000	26.234379	0.000000	0.000000	13.736281	0.000000	
18.763253	-55.131751	779.015089	52.863068	0.131423	0.000000	0.133430	-15.901540	68.279061	18.868361	0.408063	0.000000	-0.047962	0.000000	26.219902	0.000000	0.000000	14.297038	0.000000	
18.764928	-55.633758	776.357482	52.719366	0.130889	0.000000	0.133394	-15.768157	72.520785	19.305074	0.410016	0.000000	-0.048534	0.000000	26.208452	0.000000	0.000000	14.725224	0.000000	
18.766595	-56.156622	773.614951	52.563008	0.130355	0.000000	0.133354	-15.436418	76.536810	19.572805	0.411836	0.000000	-0.049107	0.000000	26.199944	0.000000	0.000000	15.032062	0.000000	
18.768259	-56.700289	770.785522	52.393565	0.129820	0.000000	0.133310	-14.933974	80.380034	19.693484	0.413526	0.000000	-0.049680	0.000000	26.194268	0.000000	0.000000	15.232374	0.000000	
18.769920	-57.264604	767.867135	52.210598	0.129281	0.000000	0.133262	-14.290405	84.110780	19.691349	0.415087	0.000000	-0.050254	0.000000	26.191292	0.000000	0.000000	15.342958	0.000000	
18.771606	-57.849313	764.857652	52.013664	0.128739	0.000000	0.133209	-13.534993	87.791593	19.590906	0.416522	0.000000	-0.050829	0.000000	26.190859	0.000000	0.000000	15.381075	0.000000	
18.773262	-58.454052	761.754856	51.802313	0.128192	0.000000	0.133153	-12.694902	91.482717	19.415210	0.417835	0.000000	-0.051404	0.000000	26.192791	0.000000	0.000000	15.363163	0.000000	
18.774926	-59.078352	758.556463	51.576093	0.127639	0.000000	0.133092	-11.793807	95.238506	19.184554	0.419028	0.000000	-0.051978	0.000000	26.196883	0.000000	0.000000	15.303825	0.000000	
18.776592	-59.721629	755.260118	51.334550	0.127079	0.000000	0.133028	-10.851027	99.104871	18.915579	0.420105	0.000000	-0.052552	0.000000	26.202912	0.000000	0.000000	15.215133	0.000000	
18.778255	-60.383189	751.863412	51.077233	0.126512	0.000000	0.132959	-9.881120	103.117775	18.620818	0.421071	0.000000	-0.053125	0.000000	26.210627	0.000000	0.000000	15.106250	0.000000	
18.779926	-61.062217	748.363882	50.803692	0.125935	0.000000	0.132886	-8.893895	107.302707	18.308622	0.421929	0.000000	-0.053697	0.000000	26.219757	0.000000	0.000000	14.983339	0.000000	
18.781591	-61.757784	744.759017	50.513484	0.125349	0.000000	0.132809	-7.894769	111.674991	17.983396	0.422683	0.000000	-0.054266	0.000000	26.230012	0.000000	0.000000	14.849706	0.000000	
18.783260	-62.468843	741.046272	50.206174	0.124752	0.000000	0.132729	-6.885373	116.240759	17.646098	0.423339	0.000000	-0.054833	0.000000	26.241077	0.000000	0.000000	14.706142	0.000000	
18.784921	-63.194226	737.223071	49.881337	0.124143	0.000000	0.132644	-5.864314	120.998384	17.294881	0.423901	0.000000	-0.055397	0.000000	26.252620	0.000000	0.000000	14.551387	0.000000	
18.786597	-63.932648	733.286816	49.538561	0.123523	0.000000	0.132556	-4.828022	125.940195	16.925829	0.424373	0.000000	-0.055956	0.000000	26.264288	0.000000	0.000000	14.382658	0.000000	
18.788260	-64.682705	729.234899	49.177452	0.122890	0.000000	0.132464	-3.771584	131.054272	16.533712	0.424761	0.000000	-0.056512	0.000000	26.275710	0.000000	0.000000	14.196203	0.000000	
18.789925	-65.442878	725.064709	48.797633	0.122243	0.000000	0.132369	-2.689518	136.326198	16.112682	0.425068	0.000000	-0.057061	0.000000	26.286499	0.000000	0.000000	13.987815	0.000000	
18.791589	-66.211531	720.773642	48.398751	0.121583	0.000000	0.132269	-1.576437	141.740623	15.656901	0.425300	0.000000	-0.057606	0.000000	26.296251	0.000000	0.000000	13.753290	0.000000	
18.793261	-66.986919	716.359113	47.980474	0.120908	0.000000	0.132166	-0.427578	147.282579	15.161033	0.425462	0.000000	-0.058143	0.000000	26.304548	0.000000	0.000000	13.488798	0.000000	
18.794927	-67.767186	711.818567	47.542503	0.120218	0.000000	0.132060	0.760817	152.938486	14.620625	0.425557	0.000000	-0.058674	0.000000	26.310957	0.000000	0.000000	13.191159	0.000000	
18.796594	-68.550370	707.149491	47.084565	0.119513	0.000000	0.131950	1.991278	158.696835	14.032338	0.425591	0.000000	-0.059197	0.000000	26.315035	0.000000	0.000000	12.858016	0.000000	
18.798261	-69.334410	702.349424	46.606424	0.118794	0.000000	0.131837	3.265009	164.548575	13.394067	0.425569	0.000000	-0.059711	0.000000	26.316326	0.000000	0.000000	12.487925	0.000000	
18.799921	-70.117146	697.415977	46.107878	0.118058	0.000000	0.131720	4.581913	170.487212	12.704944	0.425494	0.000000	-0.060217	0.000000	26.314366	0.000000	0.000000	12.080354	0.000000	
18.801587	-70.896330	692.346839	45.588766	0.117308	0.000000	0.131600	5.940708	176.508687	11.965256	0.425370	0.000000	-0.060714	0.000000	26.308682	0.000000	0.000000	11.635625	0.000000	
18.803262	-71.669628	687.139799	45.048968	0.116542	0.000000	0.131476	7.339105	182.611082	11.176305	0.425203	0.000000	-0.061201	0.000000	26.298797	0.000000	0.000000	11.154804	0.000000	
18.804920	-72.434627	681.792755	44.488409	0.115760	0.000000	0.131350	8.774031	188.794211	10.340215	0.424996	0.000000	-0.061677	0.000000	26.284225	0.000000	0.000000	10.639565	0.000000	
18.806602	-73.188844	676.303737	43.907059	0.114964	0.000000	0.131220	10.241859	195.059145	9.459735	0.424752	0.000000	-0.062143	0.000000	26.264482	0.000000	0.000000	10.092034	0.000000	
18.808261	-73.929730	670.670921	43.304939	0.114153	0.000000	0.131087	11.738640	201.407729	8.538027	0.424476	0.000000	-0.062597	0.000000	26.239077	0.000000	0.000000	9.514642	0.000000	
18.809924	-74.654681	664.892644	42.682117	0.113327	0.000000	0.130951	13.260305	207.842126	7.578483	0.424171	0.000000	-0.063040	0.000000	26.207522	0.000000	0.000000	8.909983	0.000000	
18.811592	-75.361042	658.967424	42.038716	0.112487	0.000000	0.130813	14.802841	214.364418	6.584560	0.423839	0.000000	-0.063471	0.000000	26.169329	0.000000	0.000000	8.280693	0.000000	
18.813260	-76.046122	652.893974	41.374913	0.111634	0.000000	0.130671	16.362425	220.976281	5.559650	0.423485	0.000000	-0.063890	0.000000	26.124014	0.000000	0.000000	7.629355	0.000000	
18.814928	-76.707196	646.671222	40.690939	0.110768	0.000000	0.130526	17.935519	227.678748	4.506984	0.423112	0.000000	-0.064297	0.000000	26.071097	0.000000	0.000000	6.958427	0.000000	
18.816590	-77.341518	640.298322	39.987080	0.109889	0.000000	0.130378	19.518920	234.472059	3.429575	0.422720	0.000000	-0.064691	0.000000	26.010103	0.000000	0.000000	6.270204	0.000000	
18.818261	-77.946329	633.774669	39.263683	0.108999	0.000000	0.130228	21.109783	241.355595	2.330191	0.422315	0.000000	-0.065072	0.000000	25.940567	0.000000	0.000000	5.566790	0.000000	
18.819922	-78.518867	627.099909	38.521149	0.108097	0.000000	0.130075	22.705602	248.327881	1.211351	0.421896	0.000000	-0.065440	0.000000	25.862031	0.000000	0.000000	4.850104	0.000000	
18.821586	-79.056379	620.273953	37.759942	0.107186	0.000000	0.129919	24.304184	255.386646	0.075349	0.421468	0.000000	-0.065795	0.000000	25.774051	0.000000	0.000000	4.121890	0.000000	
18.823262	-79.556128	613.296979	36.980583	0.106265	0.000000	0.129760	25.903592	262.528926	-1.075709	0.421031	0.000000	-0.066137	0.000000	25.676194	0.000000	0.000000	3.383748	0.000000	
18.824928	-80.015407	606.169441	36.183655	0.105335	0.000000	0.129599	27.502096	269.751189	-2.239865	0.420587	0.000000	-0.066465	0.000000	25.568043	0.000000	0.000000	2.637161	0.000000	
18.826595	-80.431550	598.892068	35.369802	0.104398	0.000000	0.129435	29.098103	277.049481	-3.415261	0.420138	0.000000	-0.066780	0.000000	25.449197	0.000000	0.000000	1.883531	0.000000	
18.828255	-80.801940	591.465871	34.539729	0.103455	0.000000	0.129268	30.690113	284.419560	-4.600092	0.419685	0.000000	-0.067082	0.000000	25.319275	0.000000	0.000000	1.124210	0.000000	
18.829923	-81.124028	583.892136	33.694204	0.102506	0.000000	0.129099	32.276659	291.857025	-5.792572	0.419230	0.000000	-0.067371	0.000000	25.177916	0.000000	0.000000	0.360529	0.000000	
18.831600	-81.395338	576.172429	32.834056	0.101552	0.000000	0.128927	33.856277	299.357426	-6.990899	0.418772	0.000000	-0.067646	0.000000	25.024784	0.000000	0.000000	-0.406178	0.000000	
18.833255	-81.613485	568.308594	31.960175	0.100594	0.000000	0.128752	35.427472	306.916350	-8.193236	0.418314	0.000000	-0.067908	0.000000	24.859564	0.000000	0.000000	-1.174566	0.000000	
18.834922	-81.776182	560.302752	31.073514	0.099635	0.000000	0.128575	36.988704	314.529487	-9.397702	0.417855	0.000000	-0.068158	0.000000	24.681973	0.000000	0.000000	-1.943260	0.000000	
18.836587	-81.881258	552.157309	30.175081	0.098673	0.000000	0.128396	38.538381	322.192667	-10.602364	0.417396	0.000000	-0.068394	0.000000	24.491754	0.000000	0.000000	-2.710862	0.000000	
18.838261	-81.926667	543.874961	29.265946	0.097712	0.000000	0.128213	40.074860	329.901880	-11.805249	0.416938	0.000000	-0.068619	0.000000	24.288683	0.000000	0.000000	-3.475953	0.000000	
